<svg xmlns="http://www.w3.org/2000/svg" viewBox="0 0 493.38 585.14"><defs><style>.cls-1{fill:#fff;}</style></defs><g id="Layer_2" data-name="Layer 2"><g id="Layer_1-2" data-name="Layer 1"><path class="cls-1" d="M200.68,408.54h0a255,255,0,0,0-42.55,7.34l-33.68,94.41a144.86,144.86,0,0,0-6.76,25.16c-3.58,21.78.65,39.44,18.53,45.81a60.79,60.79,0,0,0,22.36,3.86c30.64-1,53.16-30.72,56.44-93.16.06-1.76.16-3.52.26-5.17C218.86,418.1,218.56,415,200.68,408.54Z"/><path class="cls-1" d="M368.93,510.29l-33.68-94.41a255.23,255.23,0,0,0-42.55-7.34c-17.88,6.5-18.18,9.56-14.6,78.25.1,1.65.2,3.41.26,5.17,4,76.85,37.22,104.15,78.8,89.3,17.88-6.37,22.11-24,18.53-45.81A144.86,144.86,0,0,0,368.93,510.29Z"/><path class="cls-1" d="M382.29,0c-45.09,0-81.2,32.18-81.2,96.55v.62c-.13,27.86-21.88,49.71-47.6,49.18-2.11-.06-4.22-.06-6.4-.06h-.8c-2.18,0-4.29,0-6.4.06-25.72.52-47.47-21.32-47.6-49.18v-.62C192.29,32.18,156.18,0,111.09,0h0C66,0-25.55,85,6.76,107.41c14.14,9.77,30,16.15,43.36,15.71,17.17-.56,30.18-12.4,30-42.79-.2-32.1,20.32-70.9,37-71.41,11.43-.35,21.07,17.23,21.07,67.15,0,90-29,145.41-23.28,193.92,18.27,12.8,43.66,23.24,88.65,27.17h0a43.89,43.89,0,0,1,42.71-33.84h.74a43.89,43.89,0,0,1,42.71,33.84c45-3.93,70.39-14.37,88.66-27.17,5.68-48.51-23.28-104-23.28-193.92,0-122.88,58.42-49.8,58.09,4.26s41.06,49.41,73.38,27.08S427.38,0,382.29,0ZM152.66,204a28.42,28.42,0,1,1,28.42,28.41A28.41,28.41,0,0,1,152.66,204ZM312.3,232.37A28.41,28.41,0,1,1,340.72,204,28.4,28.4,0,0,1,312.3,232.37Z"/><path class="cls-1" d="M415.26,351.1a189.48,189.48,0,0,0,26.88-11.61c7.77-4.19,14.18-8.74,18.6-13.59,22.49-24.58,23.92-41.48,15.93-51.46-12.45-15.64-47.95-14.34-62,1-13.39,14.66-26.79,29.32-53.77,39A167.73,167.73,0,0,1,332,321.84a309.41,309.41,0,0,1-45.18,3.93A44,44,0,0,1,249.3,351c-.42,0-.84,0-1.3,0a2.41,2.41,0,0,1-.55,0h-1.52a2.41,2.41,0,0,1-.55,0c-.46,0-.88,0-1.3,0a44,44,0,0,1-37.52-25.26,309.41,309.41,0,0,1-45.18-3.93,167.73,167.73,0,0,1-28.87-7.35c-27-9.69-40.38-24.35-53.77-39-7-7.69-19.43-11.86-31.62-12.15s-24.18,3.29-30.41,11.11c-8,10-6.57,26.88,15.93,51.46,4.42,4.85,10.83,9.4,18.6,13.59A189.48,189.48,0,0,0,78.12,351.1c-20,7-36.6,15.47-45.48,25.19-14.66,16-20.35,28.77-20.35,38.46A20.23,20.23,0,0,0,17.78,429c5.82,6.26,15.6,9.46,25.9,9.84,13.24.49,27.36-3.71,35.06-12.12,23.05-25.23,46.1-50.42,138.32-50.42h59.26c92.22,0,115.27,25.19,138.32,50.42,13.69,15,47.66,16.58,60.95,2.28a20.19,20.19,0,0,0,5.5-14.24c0-9.69-5.69-22.47-20.35-38.46C451.86,366.57,435.25,358.15,415.26,351.1Z"/><path class="cls-1" d="M247.44,351.09a2,2,0,0,1-.42,0s0,0-.06,0h.48Z"/><path class="cls-1" d="M247,351.09s0,0-.07,0a1,1,0,0,1-.29,0H247Z"/></g></g></svg>